<svg width="50" height="50" viewBox="0 0 70 70" fill="none" xmlns="http://www.w3.org/2000/svg">
<g clip-path="url(#clip0_4_6)">
<path d="M38.5 31.5H52.5V38.5H38.5V52.5H31.5V38.5H17.5V31.5H31.5V17.5H38.5V31.5ZM35 70C25.7174 70 16.815 66.3125 10.2513 59.7487C3.68749 53.185 0 44.2826 0 35C0 25.7174 3.68749 16.815 10.2513 10.2513C16.815 3.68749 25.7174 0 35 0C44.2826 0 53.185 3.68749 59.7487 10.2513C66.3125 16.815 70 25.7174 70 35C70 44.2826 66.3125 53.185 59.7487 59.7487C53.185 66.3125 44.2826 70 35 70ZM35 63C42.4261 63 49.548 60.05 54.799 54.799C60.05 49.548 63 42.4261 63 35C63 27.5739 60.05 20.452 54.799 15.201C49.548 9.94999 42.4261 7 35 7C27.5739 7 20.452 9.94999 15.201 15.201C9.94999 20.452 7 27.5739 7 35C7 42.4261 9.94999 49.548 15.201 54.799C20.452 60.05 27.5739 63 35 63Z" fill="black"/>
</g>
<defs>
<clipPath id="clip0_4_6">
<rect width="70" height="70" fill="white"/>
</clipPath>
</defs>
</svg>
