<svg width="45" height="45" viewBox="0 0 45 45" fill="none" xmlns="http://www.w3.org/2000/svg">
<path d="M44.4167 23.229L24.1686 0.712642C23.316 -0.237547 21.6781 -0.237547 20.8255 0.712642L0.577357 23.229C0.286416 23.5526 0.0954456 23.9537 0.0275656 24.3836C-0.0403144 24.8136 0.0178066 25.2541 0.194893 25.6517C0.554859 26.4646 1.36028 26.9869 2.24895 26.9869H6.74853V42.7484C6.74853 43.3455 6.98556 43.9183 7.40748 44.3405C7.82939 44.7628 8.40164 45 8.99832 45H15.7477C16.3444 45 16.9166 44.7628 17.3385 44.3405C17.7604 43.9183 17.9975 43.3455 17.9975 42.7484V33.7418H26.9966V42.7484C26.9966 43.3455 27.2337 43.9183 27.6556 44.3405C28.0775 44.7628 28.6497 45 29.2464 45H35.9958C36.5925 45 37.1647 44.7628 37.5866 44.3405C38.0085 43.9183 38.2456 43.3455 38.2456 42.7484V26.9869H42.7451C43.1809 26.9888 43.6077 26.8637 43.9736 26.627C44.3395 26.3903 44.6287 26.0521 44.8059 25.6537C44.9831 25.2554 45.0407 24.814 44.9716 24.3834C44.9025 23.9529 44.7097 23.5518 44.4167 23.229Z" fill="black"/>
</svg>
