<svg width="50" height="50" viewBox="0 0 100 100" fill="none" xmlns="http://www.w3.org/2000/svg">
<path d="M37.4333 86.0958H23.725C18.675 86.0958 14.5833 82.0042 14.5833 76.9542V50.0625C14.5864 48.1034 15.0081 46.1677 15.8201 44.3848C16.6321 42.602 17.8157 41.0132 19.2917 39.725L44 18.2042C45.6638 16.7568 47.7947 15.9596 50 15.9596C52.2053 15.9596 54.3362 16.7568 56 18.2042L80.7083 39.7292C82.1838 41.0169 83.3671 42.605 84.1791 44.3871C84.991 46.1692 85.413 48.1042 85.4167 50.0625V76.9542C85.4167 79.378 84.4541 81.7026 82.7406 83.4168C81.0271 85.1311 78.703 86.0947 76.2792 86.0958H63.7083V58.675C63.7083 54.8917 60.6417 51.8208 56.8542 51.8208H44.2917C40.5042 51.8208 37.4375 54.8917 37.4375 58.675L37.4333 86.0958ZM37.4333 86.0958H63.7125" stroke="black" stroke-width="1.5" stroke-linejoin="round"/>
</svg>
