<svg width="50" height="50" viewBox="0 0 74 72" fill="none" xmlns="http://www.w3.org/2000/svg">
<path d="M50.7083 71.0958H50.7125H63.2792C65.703 71.0947 68.0271 70.1311 69.7406 68.4168C71.4541 66.7026 72.4167 64.378 72.4167 61.9542V35.0625C72.413 33.1042 71.9911 31.1692 71.1791 29.3871C70.3671 27.605 69.1837 26.0169 67.7083 24.7292L43 3.20417C41.3362 1.75678 39.2053 0.95961 37 0.95961C34.7947 0.95961 32.6638 1.75678 31 3.20417L6.29167 24.725C4.81574 26.0132 3.63212 27.602 2.8201 29.3848C2.00808 31.1677 1.58641 33.1035 1.58334 35.0625V61.9542C1.58334 67.0042 5.675 71.0958 10.725 71.0958H24.4333L24.4375 43.675C24.4375 39.8917 27.5042 36.8208 31.2917 36.8208H43.8542C47.6417 36.8208 50.7083 39.8917 50.7083 43.675V71.0958Z" fill="black"/>
<path d="M50.7083 71.0958H63.2792M50.7083 71.0958V43.675C50.7083 39.8917 47.6417 36.8208 43.8542 36.8208H31.2917C27.5042 36.8208 24.4375 39.8917 24.4375 43.675L24.4333 71.0958M50.7083 71.0958H50.7125M63.2792 71.0958C65.703 71.0947 68.0271 70.1311 69.7406 68.4168C71.4541 66.7026 72.4167 64.378 72.4167 61.9542V35.0625C72.413 33.1042 71.9911 31.1692 71.1791 29.3871C70.3671 27.605 69.1837 26.0169 67.7083 24.7292L43 3.20417C41.3362 1.75678 39.2053 0.95961 37 0.95961C34.7947 0.95961 32.6638 1.75678 31 3.20417L6.29167 24.725C4.81574 26.0132 3.63212 27.602 2.8201 29.3848C2.00808 31.1677 1.58641 33.1035 1.58334 35.0625V61.9542C1.58334 67.0042 5.675 71.0958 10.725 71.0958H24.4333M63.2792 71.0958H50.7125M24.4333 71.0958H50.7125" stroke="white" stroke-width="1.5" stroke-linejoin="round"/>
</svg>
