<svg width="50" height="50" viewBox="0 0 50 50" fill="none" xmlns="http://www.w3.org/2000/svg">
<path fill-rule="evenodd" clip-rule="evenodd" d="M25 0.00250008C11.1925 0.00250008 4.13934e-06 11.1949 4.13934e-06 25.0022C-0.00211536 28.6856 0.809739 32.3239 2.3775 35.657L0.0525039 46.9994C-0.0302735 47.4044 -0.0113406 47.8236 0.107608 48.2194C0.226556 48.6153 0.441809 48.9755 0.734096 49.2678C1.02638 49.5601 1.38658 49.7753 1.78246 49.8943C2.17833 50.0132 2.59752 50.0321 3.0025 49.9494L14.345 47.6244C17.58 49.1494 21.195 49.9994 25 49.9994C38.8075 49.9994 50 38.8095 50 24.9997C50 11.1949 38.8075 0 25 0" fill="black"/>
</svg>
