<svg width="25" height="25" viewBox="0 0 50 49" fill="none" xmlns="http://www.w3.org/2000/svg">
<path fill-rule="evenodd" clip-rule="evenodd" d="M50 0H0V39.4081H7.14286V49L20.1821 39.4081H50V0ZM7.14286 18.7188C7.14286 17.6737 7.51913 16.6713 8.1889 15.9323C8.85868 15.1932 9.76708 14.778 10.7143 14.778C11.6615 14.778 12.5699 15.1932 13.2397 15.9323C13.9094 16.6713 14.2857 17.6737 14.2857 18.7188C14.2857 19.764 13.9094 20.7664 13.2397 21.5054C12.5699 22.2445 11.6615 22.6596 10.7143 22.6596C9.76708 22.6596 8.85868 22.2445 8.1889 21.5054C7.51913 20.7664 7.14286 19.764 7.14286 18.7188ZM21.4286 18.7188C21.4286 17.6737 21.8048 16.6713 22.4746 15.9323C23.1444 15.1932 24.0528 14.778 25 14.778C25.9472 14.778 26.8556 15.1932 27.5254 15.9323C28.1952 16.6713 28.5714 17.6737 28.5714 18.7188C28.5714 19.764 28.1952 20.7664 27.5254 21.5054C26.8556 22.2445 25.9472 22.6596 25 22.6596C24.0528 22.6596 23.1444 22.2445 22.4746 21.5054C21.8048 20.7664 21.4286 19.764 21.4286 18.7188ZM39.2857 14.778C38.3385 14.778 37.4301 15.1932 36.7603 15.9323C36.0906 16.6713 35.7143 17.6737 35.7143 18.7188C35.7143 19.764 36.0906 20.7664 36.7603 21.5054C37.4301 22.2445 38.3385 22.6596 39.2857 22.6596C40.2329 22.6596 41.1413 22.2445 41.8111 21.5054C42.4809 20.7664 42.8571 19.764 42.8571 18.7188C42.8571 17.6737 42.4809 16.6713 41.8111 15.9323C41.1413 15.1932 40.2329 14.778 39.2857 14.778Z" fill="black"/>
</svg>
