<svg width="56" height="56" viewBox="0 0 56 56" fill="none" xmlns="http://www.w3.org/2000/svg">
<path opacity="0.16" d="M28 53C32.9445 53 37.778 51.5338 41.8892 48.7867C46.0005 46.0397 49.2048 42.1352 51.097 37.5671C52.9892 32.9989 53.4842 27.9723 52.5196 23.1228C51.555 18.2732 49.174 13.8187 45.6777 10.3223C42.1813 6.82603 37.7268 4.44501 32.8772 3.48038C28.0277 2.51575 23.0011 3.01083 18.4329 4.90302C13.8648 6.79521 9.96029 9.99953 7.21326 14.1108C4.46622 18.222 3 23.0555 3 28C3 32.1333 4 36.0278 5.77778 39.4639L3 53L16.5361 50.2222C19.9694 51.9972 23.8694 53 28 53Z" fill="black"/>
<path d="M28 53C32.9445 53 37.778 51.5338 41.8892 48.7867C46.0005 46.0397 49.2048 42.1352 51.097 37.5671C52.9892 32.9989 53.4843 27.9723 52.5196 23.1227C51.555 18.2732 49.174 13.8187 45.6777 10.3223C42.1813 6.82603 37.7268 4.44501 32.8772 3.48038C28.0277 2.51575 23.0011 3.01083 18.4329 4.90302C13.8648 6.79521 9.96029 9.99952 7.21326 14.1108C4.46622 18.222 3 23.0555 3 28C3 32.1333 4 36.0278 5.77778 39.4639L3 53L16.5361 50.2222C19.9694 51.9972 23.8694 53 28 53Z" stroke="black" stroke-width="4.16667" stroke-linecap="round" stroke-linejoin="round"/>
</svg>
