<svg width="50" height="50" viewBox="0 0 50 50" fill="none" xmlns="http://www.w3.org/2000/svg">
<path d="M28.5206 1.12466C27.5274 0.39737 26.2834 0 25 0C23.7166 0 22.4726 0.39737 21.4794 1.12466L2.10442 15.259C1.44516 15.7426 0.91433 16.3513 0.550368 17.0411C0.186405 17.7308 -0.00158406 18.4844 1.00542e-05 19.2472V44.8855C1.00542e-05 47.7105 2.51913 50 5.62501 50H12.0221C15.1294 50 17.6471 47.7105 17.6471 44.8855V33.5525C17.6471 32.6801 18.0344 31.8434 18.7239 31.2265C19.4133 30.6096 20.3485 30.263 21.3235 30.263H28.6765C29.6515 30.263 30.5867 30.6096 31.2761 31.2265C31.9656 31.8434 32.3529 32.6801 32.3529 33.5525V44.8855C32.3529 47.7105 34.8706 50 37.9779 50H44.375C47.4823 50 50 47.7105 50 44.8855V19.2472C50.0016 18.4844 49.8136 17.7308 49.4496 17.0411C49.0857 16.3513 48.5548 15.7426 47.8956 15.259L28.5206 1.12466Z" fill="black"/>
</svg>
