<svg width="68" height="59" viewBox="0 0 68 59" fill="none" xmlns="http://www.w3.org/2000/svg">
<path d="M31.3961 7.27083C32.3893 6.54353 33.6332 6.14616 34.9167 6.14616C36.2001 6.14616 37.444 6.54353 38.4372 7.27083L57.8122 21.4051C58.4715 21.8887 59.0023 22.4975 59.3663 23.1872C59.7302 23.877 59.9182 24.6305 59.9166 25.3933V51.0317C59.9166 53.8567 57.399 56.1462 54.2916 56.1462H46.424C43.3167 56.1462 40.799 53.8567 40.799 51.0317V38.8921C40.799 37.95 39.9608 37.1868 38.924 37.1868H30.9093C29.874 37.1868 29.0343 37.95 29.0343 38.8921V51.0317C29.0343 53.8567 26.5167 56.1462 23.4093 56.1462H15.5417C12.4358 56.1462 9.91667 53.8567 9.91667 51.0317V25.3933C9.91507 24.6305 10.1031 23.877 10.467 23.1872C10.831 22.4975 11.3618 21.8887 12.0211 21.4051L31.3961 7.27083ZM36.0902 9.93005C35.7591 9.68762 35.3445 9.55517 34.9167 9.55517C34.4888 9.55517 34.0742 9.68762 33.7431 9.93005L14.3681 24.063C14.148 24.2241 13.9708 24.4271 13.8494 24.6573C13.7281 24.8874 13.6656 25.1389 13.6667 25.3933V51.0317C13.6667 51.9738 14.5049 52.7369 15.5417 52.7369H23.4093C24.4446 52.7369 25.2843 51.9738 25.2843 51.0317V38.8921C25.2843 36.0671 27.8034 33.7776 30.9093 33.7776H38.924C42.0299 33.7776 44.549 36.0671 44.549 38.8921V51.0317C44.549 51.9738 45.3872 52.7369 46.424 52.7369H54.2916C55.3269 52.7369 56.1666 51.9738 56.1666 51.0317V25.3933C56.1675 25.1391 56.1049 24.8879 55.9836 24.658C55.8622 24.4281 55.6851 24.2253 55.4652 24.0644L36.0902 9.93005Z" fill="black"/>
</svg>
