<svg width="45" height="53" viewBox="0 0 45 53" fill="none" xmlns="http://www.w3.org/2000/svg">
<path fill-rule="evenodd" clip-rule="evenodd" d="M22.5 26.875C28.3902 26.875 33.7469 28.5232 37.6876 30.846C39.6542 32.005 41.3357 33.373 42.5502 34.8597C43.7449 36.3204 44.625 38.0684 44.625 39.9375C44.625 41.9444 43.6146 43.5261 42.1593 44.6542C40.7826 45.723 38.9659 46.4307 37.0361 46.9247C33.1569 47.9151 27.9796 48.25 22.5 48.25C17.0204 48.25 11.8431 47.9175 7.96387 46.9247C6.03408 46.4307 4.21737 45.723 2.84071 44.6542C1.38292 43.5237 0.375 41.9444 0.375 39.9375C0.375 38.0684 1.25508 36.3204 2.44983 34.8574C3.66425 33.373 5.34329 32.0074 7.31242 30.8436C11.2531 28.5256 16.6123 26.875 22.5 26.875ZM22.5 31.625C17.5268 31.625 13.0526 33.0262 9.874 34.9001C8.28346 35.8359 7.08379 36.8524 6.30942 37.8024C5.51292 38.7761 5.29167 39.5124 5.29167 39.9375C5.29167 40.2272 5.38263 40.5336 5.91854 40.9492C6.53067 41.4242 7.59512 41.9159 9.22254 42.3315C12.4626 43.1627 17.1187 43.5 22.5 43.5C27.8837 43.5 32.5374 43.1604 35.775 42.3315C37.4049 41.9159 38.4693 41.4242 39.0815 40.9492C39.6174 40.5336 39.7083 40.2272 39.7083 39.9375C39.7083 39.51 39.4871 38.7761 38.693 37.8024C37.9162 36.8524 36.7165 35.8359 35.126 34.9001C31.9474 33.0239 27.4732 31.625 22.5 31.625ZM22.5 0.75C25.76 0.75 28.8864 2.00111 31.1915 4.22811C33.4967 6.4551 34.7917 9.47555 34.7917 12.625C34.7917 15.7744 33.4967 18.7949 31.1915 21.0219C28.8864 23.2489 25.76 24.5 22.5 24.5C19.24 24.5 16.1136 23.2489 13.8085 21.0219C11.5033 18.7949 10.2083 15.7744 10.2083 12.625C10.2083 9.47555 11.5033 6.4551 13.8085 4.22811C16.1136 2.00111 19.24 0.75 22.5 0.75ZM22.5 5.5C21.5315 5.5 20.5725 5.68429 19.6777 6.04236C18.7829 6.40042 17.9699 6.92525 17.2851 7.58686C16.6003 8.24848 16.057 9.03393 15.6864 9.89838C15.3158 10.7628 15.125 11.6893 15.125 12.625C15.125 13.5607 15.3158 14.4872 15.6864 15.3516C16.057 16.2161 16.6003 17.0015 17.2851 17.6631C17.9699 18.3248 18.7829 18.8496 19.6777 19.2076C20.5725 19.5657 21.5315 19.75 22.5 19.75C24.456 19.75 26.3318 18.9993 27.7149 17.6631C29.098 16.3269 29.875 14.5147 29.875 12.625C29.875 10.7353 29.098 8.92306 27.7149 7.58686C26.3318 6.25067 24.456 5.5 22.5 5.5Z" fill="black"/>
</svg>
