<svg width="42" height="50" viewBox="0 0 42 50" fill="none" xmlns="http://www.w3.org/2000/svg">
<path d="M21 25.2132C26.5907 25.2132 31.675 26.8039 35.4153 29.0456C37.282 30.1641 38.878 31.4844 40.0307 32.9192C41.1647 34.3289 42 36.0159 42 37.8198C42 39.7566 41.041 41.2831 39.6597 42.3719C38.353 43.4033 36.6287 44.0864 34.797 44.5631C31.115 45.5189 26.201 45.8421 21 45.8421C15.799 45.8421 10.885 45.5212 7.203 44.5631C5.37133 44.0864 3.647 43.4033 2.34033 42.3719C0.956666 41.2808 0 39.7566 0 37.8198C0 36.0159 0.835334 34.3289 1.96933 32.9169C3.122 31.4844 4.71567 30.1664 6.58467 29.0433C10.325 26.8062 15.4117 25.2132 21 25.2132ZM21 0C24.0942 0 27.0617 1.20745 29.2496 3.35671C31.4375 5.50598 32.6667 8.42101 32.6667 11.4605C32.6667 14.5001 31.4375 17.4151 29.2496 19.5643C27.0617 21.7136 24.0942 22.9211 21 22.9211C17.9058 22.9211 14.9383 21.7136 12.7504 19.5643C10.5625 17.4151 9.33333 14.5001 9.33333 11.4605C9.33333 8.42101 10.5625 5.50598 12.7504 3.35671C14.9383 1.20745 17.9058 0 21 0Z" fill="black"/>
</svg>
