<svg width="42" height="50" viewBox="0 0 84 100" fill="none" xmlns="http://www.w3.org/2000/svg">
<g clip-path="url(#clip0_6_8)">
<path d="M83.3367 82.7474C83.3367 87.4783 81.9803 91.5365 79.2677 94.9219C76.555 98.3073 73.2889 100 69.4695 100H13.8705C10.0511 100 6.78502 98.3073 4.07234 94.9219C1.35967 91.5365 0.00333405 87.4783 0.00333405 82.7474C0.00333405 79.0582 0.187796 75.5751 0.556719 72.2982C0.925643 69.0213 1.60924 65.7227 2.6075 62.4023C3.60576 59.082 4.8753 56.2391 6.41609 53.8737C7.95689 51.5082 9.99682 49.5768 12.5359 48.0794C15.0749 46.582 17.9938 45.8333 21.2924 45.8333C26.9782 51.3889 33.7707 54.1667 41.67 54.1667C49.5693 54.1667 56.3618 51.3889 62.0476 45.8333C65.3462 45.8333 68.2651 46.582 70.8041 48.0794C73.3432 49.5768 75.3831 51.5082 76.9239 53.8737C78.4647 56.2391 79.7342 59.082 80.7325 62.4023C81.7308 65.7227 82.4144 69.0213 82.7833 72.2982C83.1522 75.5751 83.3367 79.0582 83.3367 82.7474ZM66.67 25C66.67 31.901 64.2286 37.793 59.3458 42.6758C54.463 47.5586 48.571 50 41.67 50C34.769 50 28.877 47.5586 23.9942 42.6758C19.1114 37.793 16.67 31.901 16.67 25C16.67 18.099 19.1114 12.207 23.9942 7.32422C28.877 2.44141 34.769 0 41.67 0C48.571 0 54.463 2.44141 59.3458 7.32422C64.2286 12.207 66.67 18.099 66.67 25Z" fill="white"/>
</g>
<defs>
<clipPath id="clip0_6_8">
<rect width="83.34" height="100" fill="white"/>
</clipPath>
</defs>
</svg>
